<?xml version="1.0" encoding="UTF-8" standalone="no"?>
<!-- Created with Inkscape (http://www.inkscape.org/) -->

<svg
   width="129.40912mm"
   height="76.680359mm"
   viewBox="0 0 129.40912 76.680359"
   version="1.1"
   id="svg1"
   inkscape:version="1.4 (86a8ad7, 2024-10-11)"
   sodipodi:docname="levelDownTest.svg"
   xmlns:inkscape="http://www.inkscape.org/namespaces/inkscape"
   xmlns:sodipodi="http://sodipodi.sourceforge.net/DTD/sodipodi-0.dtd"
   xmlns="http://www.w3.org/2000/svg"
   xmlns:svg="http://www.w3.org/2000/svg">
  <sodipodi:namedview
     id="namedview1"
     pagecolor="#ffffff"
     bordercolor="#000000"
     borderopacity="0.25"
     inkscape:showpageshadow="2"
     inkscape:pageopacity="0.0"
     inkscape:pagecheckerboard="0"
     inkscape:deskcolor="#d1d1d1"
     inkscape:document-units="mm"
     showguides="true"
     inkscape:zoom="0.72502697"
     inkscape:cx="384.81327"
     inkscape:cy="387.57179"
     inkscape:window-width="1536"
     inkscape:window-height="914"
     inkscape:window-x="-6"
     inkscape:window-y="-6"
     inkscape:window-maximized="1"
     inkscape:current-layer="layer1" />
  <defs
     id="defs1" />
  <g
     inkscape:label="Layer 1"
     inkscape:groupmode="layer"
     id="layer1"
     transform="translate(-4.8141097,-18.804676)">
    <path
       style="fill:none;stroke:#000000;stroke-width:0.264583px;stroke-linecap:butt;stroke-linejoin:miter;stroke-opacity:1"
       d="m 20.045941,37.488513 c 0.458256,2.42652 0.509305,4.844079 0.781011,7.289435 0.312058,2.808515 0.577189,5.545825 1.041348,8.330779 0.313972,1.883836 0.229423,3.888788 0.78101,5.727412 0.134284,0.447611 0.386391,0.854075 0.520674,1.301686 0.127514,0.425043 0.06349,2.038244 0.520674,2.343031 2.098805,1.399204 10.356129,-1.568328 12.756508,-2.082694 0.07847,-0.01683 3.644717,-0.692058 3.644717,-0.78101 0,-0.122725 -0.192262,-0.158227 -0.260336,-0.260337 -0.312669,-0.469003 -0.41183,-1.017799 -0.520674,-1.562023 -0.190275,-0.951376 -0.413533,-1.89942 -0.520673,-2.863705 -0.08884,-0.799552 0.336785,-2.190131 0,-2.863707 -0.185278,-0.370552 -0.790358,0.213879 -1.301687,0.520674 -1.819264,1.091559 -4.019971,1.295585 -5.987748,2.082696 -0.113946,0.04558 -0.150569,0.205452 -0.260337,0.260337 -0.157184,0.07859 -0.660667,-0.120346 -0.78101,0 -0.06136,0.06136 0.06136,0.321699 0,0.260337 -0.137211,-0.13721 -0.198975,-0.33659 -0.260337,-0.520674 -0.783598,-2.350793 0.165626,0.260102 -0.260337,-2.082696 -0.522025,-2.871132 -1.529765,-5.66519 -1.82236,-8.591116 -0.120213,-1.202148 0.13339,-2.444221 0,-3.644718 -0.328411,-2.955708 -0.260337,0.171313 -0.260337,-2.343033 0,-0.412883 0.287467,-2.315904 0,-2.603368 -0.177651,-0.177655 -4.224468,0.78101 -4.9464,0.78101"
       id="path10" />
    <path
       style="fill:none;stroke:#000000;stroke-width:0.264583px;stroke-linecap:butt;stroke-linejoin:miter;stroke-opacity:1"
       d="m 52.06738,32.802449 c -0.433896,-0.08678 -0.859197,-0.260337 -1.301684,-0.260337 -0.442489,0 -0.861904,0.211473 -1.301684,0.260337 -1.063614,0.118181 -6.610601,0.30653 -7.029098,1.562023 -0.336626,1.009883 0.10576,2.379617 0.260337,3.384378 0.502711,3.267622 1.027234,6.599396 1.301687,9.892802 0.144922,1.739104 0.08582,3.461547 0.260336,5.206738 0.05181,0.518091 -0.126283,1.056894 0,1.562024 0.08475,0.339021 0.778957,1.104892 1.041347,1.301683 2.08475,1.563561 8.052311,-0.387485 10.413476,-0.78101 1.818815,-0.303136 1.034167,-0.260337 2.343031,-0.260337 0.260337,0 0.596927,0.184084 0.781011,0 0.219995,-0.219995 -0.520674,-1.965528 -0.520674,-2.60337 0,-0.107418 0.233733,-3.150648 0,-3.384381 -0.291378,-0.291377 -1.360858,0.386567 -1.562021,0.520677 -0.102113,0.06807 -0.173558,0.173556 -0.260336,0.260336 -0.260337,0.08678 -0.535562,0.137613 -0.781011,0.260337 -0.574529,0.287263 -1.021641,0.977456 -1.56202,1.301684 -0.463336,0.278 -3.417152,1.496481 -3.905054,0.520673 -0.185574,-0.371144 -0.886021,-4.06038 -0.781011,-4.16539 0.486945,-0.486945 1.481225,-0.260337 2.082694,-0.260337 1.185127,0 0.0149,0.122724 0.781011,-0.260337 0.280276,-0.140137 0.240398,0.140139 0.520673,0 1.102749,-0.551373 0.781011,-2.145599 0.781011,-3.124041 0,-0.162367 0.132603,-1.42942 0,-1.562023 -0.115676,-0.115676 -1.500056,0 -1.562021,0 -0.758343,0 -2.446803,-0.33862 -3.124041,0 -0.109768,0.05489 -0.137615,0.260336 -0.26034,0.260336 -0.690136,0 -0.893828,-1.900481 -1.041347,-2.343031 -0.692346,-2.07704 3.799782,-1.645102 4.686065,-1.82236 0.190275,-0.03805 0.336587,-0.198974 0.520673,-0.260336 0.164653,-0.05488 0.397952,0.122724 0.520674,0 0.06136,-0.06136 -0.06136,-0.198975 0,-0.260337 0.172791,-0.172789 0.347885,0.172789 0.520673,0 0.310537,-0.310534 -0.159242,-2.140847 -0.260336,-2.343031 -0.452583,-0.905169 -1.041347,-1.735579 -1.562021,-2.60337 z"
       id="path11" />
    <path
       style="fill:none;stroke:#000000;stroke-width:0.264583px;stroke-linecap:butt;stroke-linejoin:miter;stroke-opacity:1"
       d="m 60.658499,33.062785 c 0.729683,1.793351 1.786583,3.612243 2.34303,5.467078 0.278792,0.929298 0.310206,1.916588 0.520674,2.863704 0.65386,2.942368 1.396645,5.751957 2.343034,8.591119 0.447122,1.341363 0.68708,2.998803 1.56202,4.165391 0.14727,0.196358 0.384524,0.316447 0.520674,0.520673 0.04814,0.07221 -0.06136,0.198975 0,0.260337 0.247361,0.247359 3.286228,-2.726293 3.38438,-2.863707 1.559095,-2.182733 2.456966,-4.913934 3.644718,-7.289432 0.954193,-1.908392 2.040593,-3.751943 2.863704,-5.727412 0.486609,-1.16786 0.550598,-2.499632 1.041347,-3.644717 0.123254,-0.287589 0.404471,-0.490503 0.520674,-0.78101 0.2457,-0.614249 -0.01834,-1.386007 0.260339,-2.082697 0.105484,-0.26371 0.590751,-1.231604 0.260337,-1.562021 -0.850598,-0.850596 -4.954492,0.06306 -6.248088,-0.260337 -0.49489,-0.123721 -1.160012,-0.851847 -1.822357,-0.520673 -0.27904,0.13952 -1.501079,3.830209 -1.562021,4.165391 -0.07762,0.426894 0.08509,0.876215 0,1.301684 -0.09165,0.458245 -0.419298,0.845494 -0.520673,1.301684 -0.0753,0.338851 0.04305,0.696912 0,1.041347 -0.133848,1.070766 -0.520676,2.02353 -0.520676,3.124043 0,0.347115 0,0.694233 0,1.041348 0,0.08678 -0.08678,0.260336 0,0.260336 0.357801,0 -0.209736,-0.687144 -0.260337,-1.041347 -0.04909,-0.343627 0,-0.694232 0,-1.041347 -0.08678,-0.520673 -0.16591,-1.04268 -0.260337,-1.56202 -0.427471,-2.351104 -1.301684,-4.61027 -1.301684,-7.029098 0,-0.10087 0.10971,-1.767504 0,-1.822358 -0.132252,-0.06613 -3.211769,0.855798 -3.644717,1.041347 -1.15035,0.493009 -2.082694,1.388465 -3.124041,2.082694 z"
       id="path12" />
    <path
       style="fill:none;stroke:#000000;stroke-width:0.264583px;stroke-linecap:butt;stroke-linejoin:miter;stroke-opacity:1"
       d="m 93.981621,30.199081 c -2.498016,-0.210929 -4.851067,0.611047 -7.289432,1.041347 -0.519825,0.09173 -1.079662,0.04595 -1.562021,0.260337 -0.336442,0.149529 -0.576786,0.474673 -0.781013,0.78101 -0.566724,0.850088 -0.244589,3.416385 -0.260337,3.644717 -1.156594,10.409352 -0.222459,0.430501 -0.520673,7.289433 -0.150884,3.470372 -1.06906,9.056367 0.520673,12.235836 0.173559,0.347114 0.185455,0.845801 0.520674,1.041347 0.782584,0.456506 1.698934,0.727808 2.60337,0.78101 0.630672,0.0371 1.208236,-0.372438 1.822357,-0.520674 1.903167,-0.459385 3.810196,-0.905017 5.727412,-1.301683 0.07546,-0.01561 4.03157,-0.64719 4.165391,-0.781011 0.105788,-0.105788 -0.361685,-1.292397 -0.520674,-1.82236 -0.879625,-2.932088 -0.277053,-0.117014 -0.78101,-3.644714 -0.123335,-0.863354 -0.0893,-1.74819 -0.260337,-2.603371 -0.16933,-0.846648 -1.459309,0.196141 -1.56202,0.260337 -1.675061,1.046911 -3.39969,1.840727 -4.686065,3.384381 -0.200305,0.240366 -0.299431,0.559765 -0.520673,0.78101 -0.137211,0.13721 -0.383466,0.123126 -0.520674,0.260337 -0.179276,0.179276 -0.216172,0.803092 -0.781013,0.520673 -0.94121,-0.470606 -0.697029,-2.628543 -0.78101,-3.38438 -0.02143,-0.192816 -0.477795,-3.535987 -0.260337,-3.644715 0.353899,-0.176951 1.053611,0.224896 1.301684,0.260337 1.184974,0.16928 2.15084,-0.29441 3.124044,-0.781011 0.07762,-0.03881 0.198974,0.06136 0.260337,0 0.341989,-0.34199 0.663905,-1.353936 0.78101,-1.82236 0.157377,-0.629507 -0.114401,-1.238615 -0.260337,-1.822357 -0.02606,-0.104254 0.06628,-1.019254 0,-1.041347 -1.15076,-0.383588 -5.137854,2.02901 -5.727411,0.260337 -0.140314,-0.420939 0,-1.101503 0,-1.562024 0,-0.231015 -0.117962,-1.065757 0,-1.301683 0.367874,-0.735749 1.671661,-0.789583 2.343033,-1.041348 0.657357,-0.246509 4.165388,-1.066715 4.165388,-2.082694 0,-0.194045 -0.222281,-0.330398 -0.260336,-0.520676 -0.204224,-1.021125 0,-2.082694 0,-3.124041 z"
       id="path13" />
    <path
       style="fill:none;stroke:#000000;stroke-width:0.264583px;stroke-linecap:butt;stroke-linejoin:miter;stroke-opacity:1"
       d="m 104.3951,30.459418 c 0.68516,4.674764 -0.095,9.375626 -0.52068,14.058193 -0.0776,0.853533 -1.03009,7.096921 -0.52067,7.810106 0.2522,0.353076 0.61588,0.695917 1.04135,0.78101 0.82357,0.164714 7.38765,-1.152768 8.33078,-1.301684 1.67426,-0.264356 3.6189,0.0086 5.20674,-0.520673 0.61077,-0.203592 0.0219,-1.387002 0,-1.562021 -0.17205,-1.376384 -0.26034,-2.769375 -0.26034,-4.165391 0,-0.954569 0.23152,-1.937639 0,-2.863707 -0.0683,-0.273061 -1.23883,0.235196 -1.30168,0.260337 -1.5805,0.632201 -3.52004,0.611111 -4.94641,1.562023 -0.36469,0.243128 -1.30168,1.110075 -1.30168,0.78101 0,-0.382399 0.70476,-2.031526 0.78101,-2.60337 0.48708,-3.653083 0.37399,-7.527356 0.52067,-11.194486 0.002,-0.05701 0.31721,-3.355949 0.26034,-3.384381 -0.60148,-0.300736 -4.94117,0.170072 -5.46707,0.520676 -0.71479,0.476525 -1.21491,1.214903 -1.82236,1.822358 z"
       id="path14" />
    <path
       style="fill:none;stroke:#000000;stroke-width:0.264583px;stroke-linecap:butt;stroke-linejoin:miter;stroke-opacity:1"
       d="m 38.009187,88.514546 c 0,-5.597406 -0.821899,-11.36201 -2.603368,-16.661561 2.438209,-2.682432 5.257743,-3.925809 8.851455,-4.16539 0.606107,-0.04041 1.226702,-0.119131 1.822358,0 4.777029,0.955406 8.070444,7.756572 8.070444,12.235835 0,3.151446 -4.208355,6.615252 -6.768759,7.810107 -1.112104,0.518982 -2.431748,0.334063 -3.644717,0.520674 -3.194348,0.491438 0.798126,-0.03273 -2.863706,0.781011 -0.792323,0.176071 -2.464344,-0.420835 -2.863707,-0.520676 z"
       id="path15" />
    <path
       style="fill:none;stroke:#000000;stroke-width:0.264583px;stroke-linecap:butt;stroke-linejoin:miter;stroke-opacity:1"
       d="m 40.612557,75.758039 c 1.373926,3.205829 0.364874,0.452988 1.041347,3.384378 0.142057,0.615582 0.424611,1.197946 0.520674,1.82236 0.106386,0.691499 -0.321795,1.694606 0.260336,2.082694 0.388557,0.259038 1.528654,-0.501605 1.562024,-0.520673 1.233971,-0.705128 0.387233,-0.322694 1.56202,-1.301684 1.969431,-1.641195 2.827451,-2.56055 2.343031,-5.467075 -0.418999,-2.514002 -5.467075,-2.13506 -5.467075,-0.78101"
       id="path16" />
    <path
       style="fill:none;stroke:#000000;stroke-width:0.264583px;stroke-linecap:butt;stroke-linejoin:miter;stroke-opacity:1"
       d="m 62.220519,65.084226 c -2.321877,0.331695 -1.737839,-0.08452 -3.644717,1.822358 -1.701932,1.701932 -3.26122,4.079613 -3.644715,6.508421 -0.503089,3.186224 0.346477,8.764358 3.644715,10.413476 0.543324,0.271661 1.221012,0.08591 1.82236,0 1.403228,-0.200461 2.485818,-0.659516 3.384378,-1.822357 3.115138,-4.031353 4.844357,-7.547157 1.301686,-11.975496 -0.347117,-0.433896 -0.591968,-0.974866 -1.041349,-1.301687 -0.534483,-0.388715 -1.222296,-0.504058 -1.822358,-0.78101 -0.52855,-0.243946 -1.00444,-0.613736 -1.56202,-0.781011 -1.315768,0 -0.712044,0.109768 -1.82236,-0.260336"
       id="path17" />
    <path
       style="fill:none;stroke:#000000;stroke-width:0.264583px;stroke-linecap:butt;stroke-linejoin:miter;stroke-opacity:1"
       d="m 58.836139,73.675342 c -0.866191,0.990465 -0.86976,5.712622 0.781013,5.987751 0.645226,0.107537 1.210021,-1.287034 1.301683,-1.562023 0.795317,-2.385946 -0.280379,-3.138358 -2.082696,-4.425728 z"
       id="path18" />
    <path
       style="fill:none;stroke:#000000;stroke-width:0.264583px;stroke-linecap:butt;stroke-linejoin:miter;stroke-opacity:1"
       d="m 70.030628,67.16692 c -0.194837,2.891473 0.767037,5.605124 1.56202,8.330782 0.648261,2.222609 1.052788,4.188272 2.082694,6.248085 0.07412,0.148228 0.938602,2.480027 1.82236,1.301684 0.431864,-0.57582 1.797937,-4.612799 2.082694,-5.467075 0.312886,-0.938657 0.187352,-2.072158 0.781011,-2.863704 0.511699,-0.682265 0.878763,0.03292 1.041347,0.520674 0.166923,0.500766 0.04595,1.079658 0.260339,1.56202 0.924412,2.079932 1.74303,3.905054 4.165388,3.905054 2.450151,0 4.957789,-5.512625 5.467075,-7.549771 0.438198,-1.75278 0.658098,-5.274173 0,-7.029096 -0.136265,-0.363378 -0.397949,-0.673176 -0.520673,-1.041347 -0.206219,-0.618664 0.308181,-0.472831 -0.260337,-1.041349 -0.06136,-0.06136 -0.198975,0.06136 -0.260337,0 -0.06136,-0.06136 0.06136,-0.198975 0,-0.260337 -0.179927,-0.179927 -1.862285,0 -2.082694,0 -0.690708,0 -2.49252,-0.315759 -3.124044,0 -0.07762,0.03881 0.06136,0.198977 0,0.260337 -0.538646,0.538646 0.02106,-0.823122 -0.520673,0.260339 -0.410242,0.820483 0.472217,4.73452 0,5.206738 -0.05282,0.05282 -1.029073,0.0082 -1.041347,0 -0.161454,-0.107638 -0.160502,-0.354285 -0.260337,-0.520676 -1.274175,-2.123625 0.184859,0.333261 -1.041347,-1.301684 -0.775957,-1.034608 -1.315326,-2.589728 -2.863707,-1.041347 -0.563579,0.563578 -0.612035,0.456798 -0.781011,1.301684 -0.198577,0.992883 0.368861,0.04329 -0.260336,1.301684 -0.05489,0.109767 -0.221528,0.143912 -0.260337,0.260339 -0.05488,0.16465 0.07762,0.365437 0,0.520674 -0.03881,0.07762 -0.198975,-0.06136 -0.260337,0 -0.06136,0.06136 0.06136,0.321698 0,0.260336 -1.321935,-1.321935 -0.845828,-3.514016 -1.562023,-4.946401 -0.07762,-0.155236 0.122724,-0.397949 0,-0.520673 -0.433721,-0.433724 -1.367205,0.651134 -1.562021,0.78101 -0.842042,0.561361 -1.735579,1.041347 -2.603367,1.56202 z"
       id="path19" />
    <path
       style="fill:none;stroke:#000000;stroke-width:0.264583px;stroke-linecap:butt;stroke-linejoin:miter;stroke-opacity:1"
       d="m 93.981621,79.92343 c 0.520316,-2.659766 0.171384,-5.363435 0.520673,-8.070445 0.159004,-1.232271 0.498682,-2.434733 0.781013,-3.644718 0.32521,-1.393756 0.677117,-2.781315 1.041347,-4.16539 0.09877,-0.375309 0.173556,-1.214904 0.520674,-1.041348 1.312579,0.656292 1.430179,2.52612 2.082694,3.644718 0.257649,0.441682 3.611038,4.724659 4.165388,4.946401 0.69311,0.277244 0.96784,-1.154668 1.30169,-1.822357 1.07849,-2.156987 1.95783,-4.705165 2.60337,-7.029098 0.33795,-2.36568 0.0663,-1.240227 0.78101,-3.384378 0.033,-0.09902 0.26692,-1.815769 0.52067,-1.562023 1.52685,1.526844 1.53233,4.321812 2.0827,6.248085 0.72406,2.534224 2.08269,6.207646 2.08269,8.851455 0,0.335592 0.24531,2.097725 0,2.343034 -0.0614,0.06136 -0.19897,-0.06136 -0.26033,0 -0.0614,0.06136 0.0614,0.198974 0,0.260336 -0.66724,0.667237 -1.56921,0.837388 -2.34304,1.301684 -1.39961,0.839766 0.52195,0.259789 -1.30168,1.041347 -1.76459,0.756251 -3.56185,0.343204 -4.9464,-1.041347 -0.86184,-0.861835 -0.22461,-0.801425 -1.04135,-1.822357 -0.24244,-0.303046 -0.76693,-0.246256 -1.04135,-0.520674 -0.13721,-0.13721 -0.0989,-0.413038 -0.26033,-0.520676 -0.14441,-0.09627 -0.34712,0 -0.52068,0 -0.0868,0 -0.23929,-0.08419 -0.26033,0 -0.28029,1.12114 1.51124,8.070445 -0.26034,8.070445 -1.917246,0 -2.734388,-1.775179 -4.425729,-2.082694 -0.597657,-0.108664 -1.214906,0 -1.82236,0 z"
       id="path20" />
    <path
       style="fill:none;stroke:#000000;stroke-width:0.264583px;stroke-linecap:butt;stroke-linejoin:miter;stroke-opacity:1"
       d="m 122.61868,75.758039 c 0.12823,2.644862 -1.37676,5.040643 -2.60337,7.289432 -0.19894,0.364728 -0.65862,1.046536 -1.04135,1.301684 -0.0314,0.02093 -0.69631,-0.09095 -0.52067,0.260337 0.20899,0.417983 0.90096,0.280241 1.30168,0.520676 0.21047,0.12628 0.32902,0.367342 0.52068,0.520674 0.24432,0.195458 0.58555,0.276349 0.78101,0.520673 0.52474,0.655923 0.29015,1.651463 0.52067,2.343031 0.0776,0.232852 0.43449,-0.290854 0.52068,-0.520674 0.55003,-1.466768 0.87074,-2.160878 1.82235,-3.38438 0.56726,-0.729329 1.72206,-2.162712 2.60338,-2.603368 0.98349,-0.491747 0.33265,0.07232 0.52067,0.260337 0.0614,0.06136 0.34711,0 0.26034,0 -3.01142,0 -3.92437,-4.528 -4.68607,-6.508422 z"
       id="path21" />
    <path
       style="fill:none;stroke:#000000;stroke-width:0.264583px;stroke-linecap:butt;stroke-linejoin:miter;stroke-opacity:1"
       d="m 7.0290964,22.388974 c 0.8862933,2.772528 0.5850504,5.416705 -0.5206738,8.070444 -0.2702459,0.648589 -0.6201158,1.260715 -1.0413476,1.822357 -0.1472689,0.196358 -0.5206738,0.275228 -0.5206738,0.520674 0,0.08923 1.0303632,0.254846 1.0413476,0.260336 0.32286,0.161431 0.9187193,1.056429 1.0413476,1.301687 0.3005132,0.601025 0.00932,1.320316 0.2603368,1.822357 0.054884,0.109768 0.2054532,0.150569 0.260337,0.260337 0.038809,0.07762 -0.021048,0.344525 0,0.260337 0.5873568,-2.349426 1.3412393,-3.311888 3.3843798,-4.946401 0.622261,-0.497809 1.372338,0.189682 1.301684,0.260336 -0.60458,0.604581 -1.644601,-1.017272 -1.822358,-1.301684 C 9.3027023,28.942516 9.0383695,27.173277 8.3307808,25.252679 7.96829,24.268776 7.4629911,23.343542 7.0290964,22.388974 Z"
       id="path22" />
    <path
       style="fill:none;stroke:#000000;stroke-width:0.264583px;stroke-linecap:butt;stroke-linejoin:miter;stroke-opacity:1"
       d="m 10.673813,85.650842 c 0.08678,-0.607455 0.260337,-1.208739 0.260337,-1.822361 0,-0.162731 -0.7515,-4.135879 0,-3.384377 0.668987,0.668985 1.011096,1.731602 1.301684,2.603367 0.08678,0.260337 0.193781,0.514787 0.260337,0.78101 0.04209,0.168376 -0.122724,0.397952 0,0.520674 0.06136,0.06136 0.18272,0.03881 0.260337,0 0.732242,-0.36612 1.380691,-0.88048 2.082695,-1.301684 0.455567,-0.273338 1.713282,-1.56202 2.082696,-1.56202 0.370252,0 -1.659169,3.45042 -1.562022,3.644717 0.151393,0.302784 3.966475,1.760937 3.124043,2.603368 -0.06659,0.06659 -1.703125,-0.500801 -1.822358,-0.520674 -1.128147,-0.188023 -2.295467,-0.157702 -3.38438,-0.520673 -1.38514,-0.461714 -0.254768,4.038007 -1.041348,3.644717 C 11.297985,89.86798 11.3736,88.172985 10.93415,87.733536 10.805671,87.605057 5.512218,88.101471 8.8514546,86.431852 9.4425716,86.136294 10.06636,85.911178 10.673813,85.650842 Z"
       id="path24" />
    <path
       style="fill:none;stroke:#000000;stroke-width:0.264583px;stroke-linecap:butt;stroke-linejoin:miter;stroke-opacity:1"
       d="m 128.60643,33.062785 c -0.005,-0.757914 -1.40994,-3.644714 -2.34303,-3.644714 -0.93316,0 -0.15059,4.46656 -0.26034,4.686064 -0.21548,0.430953 -0.37461,0.192604 -0.78101,0.260337 -0.11572,0.01929 -1.61602,0.383114 -1.82236,0.520673 -0.30634,0.204224 -0.52067,0.520674 -0.78101,0.781011 -0.95085,0.950851 -1.31309,1.041347 0.26034,1.041347 0.61645,0 1.74913,0.197966 2.34303,0 0.11643,-0.03881 0.17356,-0.347115 0.26034,-0.260337 0.36867,0.368678 -0.68948,3.215574 0,3.905054 0.68523,0.685229 1.79875,-3.621111 2.08269,-3.905054 0.0868,-0.08678 0.13761,-0.260337 0.26034,-0.260337 0.0868,0 -0.0481,0.188132 0,0.260337 0.99378,1.49067 2.03067,2.100035 3.64472,1.562021 0.0823,-0.02744 0.19897,0.06136 0.26033,0 0.65527,-0.65527 -1.42625,-1.958126 -1.04135,-2.343031 0.22125,-0.221245 0.58556,-0.276352 0.78102,-0.520674 0.17142,-0.214286 0.10083,-0.557707 0.26033,-0.78101 1.01242,-1.417392 0.91118,-0.607454 1.82236,-1.82236 0.0919,-0.12251 0.15912,-0.679794 0.26034,-0.78101 0.0868,-0.08678 0.34711,-0.173559 0.26033,-0.260337 -0.50022,-0.500221 -4.97528,1.351256 -5.46707,1.56202 z"
       id="path25" />
    <path
       style="fill:none;stroke:#000000;stroke-width:0.264583px;stroke-linecap:butt;stroke-linejoin:miter;stroke-opacity:1"
       d="m 33.843798,27.595711 c -0.347117,0.08678 -1.128127,-0.08678 -1.041349,0.260336 0.08678,0.347118 0.990748,-0.614539 1.041349,-0.260336 0.104855,0.733988 -0.699132,1.345792 -0.781013,2.082696 -0.04791,0.431242 1.253771,0.431242 1.301687,0 0.07902,-0.711221 -0.347118,-1.388464 -0.520674,-2.082696 z"
       id="path27" />
    <path
       style="fill:none;stroke:#000000;stroke-width:0.264583px;stroke-linecap:butt;stroke-linejoin:miter;stroke-opacity:1"
       d="m 16.401225,70.030628 c -1.29553,1.43225 1.106465,3.937545 2.343032,2.082694 0.302431,-0.453647 0.260337,-1.050301 0.260337,-1.562021 0,-1.584209 -1.591604,-0.809749 -2.603369,-0.520673 z"
       id="path28" />
    <path
       style="fill:none;stroke:#000000;stroke-width:0.264583px;stroke-linecap:butt;stroke-linejoin:miter;stroke-opacity:1"
       d="m 73.154669,92.940274 c -2.167014,-0.502396 0.09114,2.935218 0.260336,2.343033 0.215882,-0.755584 -0.173556,-1.562023 -0.260336,-2.343033 z"
       id="path29" />
    <path
       style="fill:none;stroke:#000000;stroke-width:0.264583px;stroke-linecap:butt;stroke-linejoin:miter;stroke-opacity:1"
       d="m 127.56508,57.274118 c -0.26033,0.694232 -0.60118,1.363393 -0.78101,2.082697 -0.97727,3.909091 4.12597,1.611643 2.60337,-0.781013 -0.40078,-0.629793 -1.21491,-0.867789 -1.82236,-1.301684 z"
       id="path30" />
    <path
       style="fill:none;stroke:#000000;stroke-width:0.264583px;stroke-linecap:butt;stroke-linejoin:miter;stroke-opacity:1"
       d="m 109.86217,19.004594 c -0.43389,0.347116 -0.97871,0.589191 -1.30168,1.041347 -0.15132,0.211845 -0.0631,0.528447 0,0.781011 0.63201,2.52803 2.57515,1.392729 2.34303,0 -0.11502,-0.690115 -0.69423,-1.214905 -1.04135,-1.822358 z"
       id="path31" />
  </g>
</svg>
