<?xml version="1.0" encoding="UTF-8" standalone="no"?>
<!-- Created with Inkscape (http://www.inkscape.org/) -->

<svg
   width="249.22641mm"
   height="44.123257mm"
   viewBox="0 0 249.22641 44.123256"
   version="1.1"
   id="svg1"
   sodipodi:docname="toctest.svg"
   inkscape:version="1.4 (86a8ad7, 2024-10-11)"
   xmlns:inkscape="http://www.inkscape.org/namespaces/inkscape"
   xmlns:sodipodi="http://sodipodi.sourceforge.net/DTD/sodipodi-0.dtd"
   xmlns="http://www.w3.org/2000/svg"
   xmlns:svg="http://www.w3.org/2000/svg">
  <sodipodi:namedview
     id="namedview1"
     pagecolor="#ffffff"
     bordercolor="#000000"
     borderopacity="0.25"
     inkscape:showpageshadow="2"
     inkscape:pageopacity="0.0"
     inkscape:pagecheckerboard="0"
     inkscape:deskcolor="#d1d1d1"
     inkscape:document-units="mm"
     showguides="false"
     inkscape:zoom="1.0206083"
     inkscape:cx="509.01014"
     inkscape:cy="141.09232"
     inkscape:window-width="1536"
     inkscape:window-height="890"
     inkscape:window-x="-6"
     inkscape:window-y="-6"
     inkscape:window-maximized="1"
     inkscape:current-layer="layer1" />
  <defs
     id="defs1" />
  <g
     inkscape:label="Layer 1"
     inkscape:groupmode="layer"
     id="layer1"
     transform="translate(-11.552194,-23.19228)">
    <path
       style="fill:none;stroke:#000000;stroke-width:0.64004934;stroke-linecap:butt;stroke-linejoin:miter;stroke-opacity:1;stroke-dasharray:none"
       d="m 27.61495,26.911296 c -0.935436,1.217555 -2.179476,2.122361 -3.374246,3.101985 -2.130001,1.746446 -2.974191,2.685296 -5.173842,4.135981 -2.416963,1.594002 -5.18216,2.850177 -7.42334,4.652977 0.600281,1.806108 1.007399,3.600734 0.899799,5.480174 -0.195402,3.413065 0.17688,-0.68047 -0.112475,1.447594 -0.0011,0.008 -0.1293,0.620397 -0.112476,0.620397 0.03749,0 -0.01677,-0.07257 0,-0.1034 0.06046,-0.11115 0.143844,-0.210782 0.224951,-0.310198 0.317425,-0.389084 1.069906,-1.202069 1.349698,-1.447594 1.424488,-1.250024 3.109401,-2.15806 4.611468,-3.308783 0.571701,-0.437976 0.981125,-1.127849 1.687123,-1.344194 0.191003,-0.05853 0.25816,1.023205 0.337425,1.861191 0.184707,1.952744 0.160389,3.935189 0.224949,5.893773 0.137608,4.174644 0.340996,8.33927 0.562375,12.51134 0.124407,2.344566 0.04436,4.857841 0.787323,7.134564"
       id="path35" />
    <path
       style="fill:none;stroke:#000000;stroke-width:0.64004934;stroke-linecap:butt;stroke-linejoin:miter;stroke-opacity:1;stroke-dasharray:none"
       d="m 27.61495,26.704497 c 0.133838,2.851971 2.046774,4.996118 4.611468,6.41077 0.04546,0.02507 0.149965,0.06893 0.112475,0.103399 -0.0743,0.0683 -1.419587,0.258362 -1.574649,0.310199 -0.236359,0.07901 -0.449899,0.206799 -0.674848,0.310198 -1.934645,0.889271 -3.976386,1.82777 -5.848692,2.688387 -0.42569,0.195672 0.170747,1.479989 0.224949,1.654393 0.429961,1.383433 0.69808,2.962754 1.012275,4.342779 1.212334,5.324903 2.458998,10.665235 4.386518,15.820125 0.08377,0.224043 1.515166,3.314749 1.462172,3.412184 -0.06838,0.125724 -1.395016,0.351671 -1.574647,0.413597 -1.260914,0.434691 -2.653504,0.957237 -3.824145,1.550994 -1.517609,0.769741 -2.678954,1.827937 -3.936619,2.895187 -0.757519,0.642828 -1.1393,0.620394 -0.674849,0.620394"
       id="path36" />
    <path
       style="fill:none;stroke:#000000;stroke-width:0.64004934;stroke-linecap:butt;stroke-linejoin:miter;stroke-opacity:1;stroke-dasharray:none"
       d="m 29.751971,55.035963 c 0.856275,-3.994232 1.775386,-7.949928 2.361972,-11.994343 0.460483,-3.174959 1.027241,-6.349551 1.574647,-9.512755 0.06652,-0.384371 1.039743,-6.229223 1.12475,-6.30737 0.673632,-0.61928 2.156115,-0.399586 3.036818,-0.620397 0.657419,-0.164829 1.194537,-0.538383 1.799602,-0.723796 0.184509,-0.05654 0.274099,-0.310199 0.449899,-0.310199 0.07247,0 0.224949,1.42983 0.224949,1.654392 0,1.993865 0.08951,4.005099 0.22495,5.997171 0.0398,0.585801 0.05095,1.173578 0.11247,1.757792 0.167151,1.587815 0.522348,3.167487 0.674849,4.756377 0.227981,2.375241 0.459436,4.758176 0.674849,7.134567 0.27058,2.984964 -0.121895,1.141468 0.449899,4.032581 0.354813,1.794007 0.98296,3.511182 1.462176,5.273374 0.09273,0.340997 0.110903,0.698505 0.22495,1.033995 0.07334,0.215748 0.691022,1.728051 0.562369,1.964591 -0.221466,0.407195 -3.41801,1.177635 -4.161562,1.861191 -0.250644,0.230416 -1.194191,-3.349438 -1.237227,-3.515582 -0.26957,-1.040862 -0.633886,-2.063051 -0.899798,-3.101987 -0.268306,-1.048295 -0.369725,-2.142757 -0.562375,-3.205384 -0.04541,-0.250479 -0.456437,-2.203851 -0.562372,-2.171389 -0.491037,0.150471 -2.543826,0.604938 -2.699397,1.033995 -0.29134,0.803496 -0.164121,1.849593 -0.224949,2.688387 -0.09294,1.281637 -0.333643,2.543261 -0.4499,3.825781 -0.05807,0.640567 0.204488,4.258191 -0.22495,4.652978 -0.42659,0.39217 -1.269248,0.2068 -1.799597,0.2068"
       id="path37" />
    <path
       style="fill:none;stroke:#000000;stroke-width:0.64004934;stroke-linecap:butt;stroke-linejoin:miter;stroke-opacity:1;stroke-dasharray:none"
       d="m 36.163037,33.218666 c -0.07498,1.068462 -0.107773,2.140135 -0.22495,3.205384 -0.220367,2.003348 -0.522885,3.998337 -0.787323,5.997173 -0.07299,0.55169 -0.15819,1.102035 -0.22495,1.654392 -0.07898,0.653443 2.81187,-0.0062 2.81187,0.310199 0,0.04038 -0.157731,0.165194 -0.224948,0.103399 -0.04894,-0.04499 -0.211281,-2.640996 -0.22495,-2.791787 -0.165734,-1.828328 -0.157248,-3.658142 -0.337425,-5.480175 -0.03646,-0.368718 0.0416,-2.062332 -0.112475,-2.274788 -0.191735,-0.264397 -0.4499,-0.482531 -0.674849,-0.723797 z"
       id="path38" />
    <path
       style="fill:none;stroke:#000000;stroke-width:0.64004934;stroke-linecap:butt;stroke-linejoin:miter;stroke-opacity:1;stroke-dasharray:none"
       d="m 41.899255,43.145019 c 0.349326,-1.581875 0.595789,-3.186573 1.012269,-4.756378 0.962178,-3.626607 2.010784,-7.217603 2.924352,-10.856948 0.114056,-0.45439 0.28956,-2.71831 0.449899,-2.895186 1.626027,-1.793796 4.630963,-0.521961 6.523537,0 2.2201,0.61229 6.039878,1.209578 6.298596,3.825782 0.06994,0.707457 -0.348334,1.664419 -0.899798,2.17139 -0.45611,0.419303 -1.063387,0.672446 -1.574656,1.033994 -1.356778,0.959465 -2.738075,1.815965 -4.161562,2.688388 -0.203462,0.124691 -2.118081,1.16062 -1.799596,1.550994 0.214611,0.263066 1.724918,0.313943 2.249495,0.516995 0.355746,0.137705 0.693706,0.316618 1.012269,0.516998 2.027507,1.275306 5.400687,5.412875 6.298595,7.444766 0.599422,1.356454 0.702006,3.066628 0.112471,4.446179 -2.082031,4.872088 -7.67174,6.517338 -12.709653,7.651562 -1.776698,0.400001 -3.341825,0.603366 -4.948899,1.447594"
       id="path41" />
    <path
       style="fill:none;stroke:#000000;stroke-width:0.64004934;stroke-linecap:butt;stroke-linejoin:miter;stroke-opacity:1;stroke-dasharray:none"
       d="m 49.09764,27.841892 c -0.374916,1.137394 -1.159674,2.224148 -1.124747,3.412183 0.01184,0.403273 0.798398,0.413598 1.237226,0.413598 2.063262,0 3.097418,0.113951 4.049092,-1.344193 0.763855,-1.17037 -1.429932,-2.311671 -2.249495,-2.688387 -0.195537,-0.08988 -0.345259,-0.33368 -0.562379,-0.310199 -0.48405,0.05235 -0.899798,0.344665 -1.349697,0.516998 z"
       id="path42" />
    <path
       style="fill:none;stroke:#000000;stroke-width:0.64004934;stroke-linecap:butt;stroke-linejoin:miter;stroke-opacity:1;stroke-dasharray:none"
       d="m 46.398246,40.76683 c -0.07499,1.861191 -0.142328,3.722656 -0.22495,5.583574 -0.06733,1.516828 -0.72702,3.103354 -0.224949,4.549579 0.196782,0.566817 1.266439,0.351608 1.912075,0.310198 2.080716,-0.133453 4.596881,-0.825914 5.398789,-2.791786 0.55629,-1.363744 0.725653,-3.432169 0.337429,-4.859778 -0.91606,-3.368573 -3.938869,-4.93216 -7.198394,-2.791787 z"
       id="path43" />
    <path
       style="fill:none;stroke:#000000;stroke-width:0.64004934;stroke-linecap:butt;stroke-linejoin:miter;stroke-opacity:1;stroke-dasharray:none"
       d="m 58.995429,23.705912 c -0.274805,2.273684 -0.281338,1.239132 -0.11248,3.101985"
       id="path44" />
    <path
       style="fill:none;stroke:#000000;stroke-width:0.64004934;stroke-linecap:butt;stroke-linejoin:miter;stroke-opacity:1;stroke-dasharray:none"
       d="m 58.433059,30.530279 c 0.0115,2.854573 -1.721739,7.691324 -0.562378,9.822954"
       id="path45" />
    <path
       style="fill:none;stroke:#000000;stroke-width:0.64004934;stroke-linecap:butt;stroke-linejoin:miter;stroke-opacity:1;stroke-dasharray:none"
       d="m 57.98316,53.174772 c -0.299933,2.240322 -0.937573,4.464008 -0.899807,6.720968 0.0052,0.310162 0.685379,0.07687 1.012277,0 1.29797,-0.305247 2.502604,-0.934911 3.824142,-1.137395 1.589924,-0.243605 2.986141,0.447825 4.386521,0.930596 0.655809,0.226084 1.356029,0.324941 2.024546,0.516997 0.122774,0.03527 1.045984,0.486007 1.237226,0.310198 0.262968,-0.241753 0.266479,-1.431674 0.337429,-1.757791 0.299219,-1.375366 0.676251,-2.796008 1.124748,-4.135981 0.02726,-0.0816 0.383024,-0.827196 0.562369,-0.827196 0.141692,0 -0.489912,0.386954 -0.562369,0.413598 -0.546344,0.200904 -1.329107,0.171071 -1.912076,0.206799 -1.157287,0.07093 -2.329121,0.0408 -3.486722,0.1034 -0.900608,0.0487 -1.349697,0.357931 -1.349697,-0.620397 0,-0.482531 -0.03275,-0.966002 0,-1.447592 0.07761,-1.140987 0.28949,-2.266469 0.33742,-3.412184 0.225176,-5.382225 0.301483,-10.767405 0.899807,-16.130324 0.228094,-2.044483 1.054677,-4.077661 1.462167,-6.100571 0.09385,-0.465879 0.363036,-1.19371 0.112471,-1.654393 -0.185538,-0.34115 -0.701048,-0.180789 -1.012269,-0.206799 -2.307181,-0.192819 -5.470253,0.645535 -7.535814,-0.620397"
       id="path46" />
    <path
       style="fill:none;stroke:#000000;stroke-width:0.64004934;stroke-linecap:butt;stroke-linejoin:miter;stroke-opacity:1;stroke-dasharray:none"
       d="m 68.443318,53.691768 c 0,0.444553 0,-0.492312 0,-1.033993 0,-1.485498 0.151638,-2.963547 0.224941,-4.446179 0.400949,-8.108964 1.404464,-16.240663 4.274049,-23.988687 0.337429,0.206799 0.623217,0.515202 1.012278,0.620397 0.579963,0.156815 1.195062,-0.206799 1.799596,-0.206799 1.349636,0 2.692122,0.189433 4.049092,0.103399 2.212863,-0.140297 4.406333,-0.527474 6.636023,-0.413598 0.44199,0.02258 2.75534,-5.29e-4 3.03682,0.516998 0.0179,0.03295 -0.4486,0.06734 -0.56238,0.206799 -0.2134,0.261582 -0.25116,0.61338 -0.33742,0.930596 -0.34368,1.263821 -0.22051,2.639351 -0.33742,3.92918 -0.14684,1.619852 -0.11248,3.235447 -0.11248,4.859777 0,0.241266 0.18557,0.553198 0,0.723798 -0.18593,0.170931 -2.05131,-0.638774 -2.2495,-0.723798 -1.90455,-0.817075 -4.04336,-0.654216 -5.961173,-1.447592 -0.322535,-0.133433 -0.587201,-0.364862 -0.899789,-0.516998 -0.119012,-0.05792 -2.875595,-1.020233 -2.924353,-0.930596 -0.0986,0.181303 -0.08736,3.445328 -0.112471,3.722383 -0.03937,0.43434 -0.428525,3.761685 -0.224949,4.13598 0.09401,0.172864 1.802706,-0.09883 1.912067,-0.103399 2.135814,-0.08925 4.299008,-0.114899 6.298598,0.620398 0.21367,0.07857 0.8887,0.0932 1.01227,0.206798 8.8e-4,0.0013 -0.32195,0.568222 -0.33742,0.620397 -0.06,0.202264 -0.075,0.413598 -0.11247,0.620397 -0.27937,1.540959 -0.22495,3.193154 -0.22495,4.756377 0,0.202088 0.0137,0.516998 -0.33743,0.516998 -1.09608,0 -2.29194,-0.471151 -3.37425,-0.620397 -1.193299,-0.164552 -2.397672,-0.1034 -3.599188,-0.1034 -0.09914,0 -1.970571,-0.09925 -2.024546,0 -0.36517,0.671399 0.215839,1.91438 0.33742,2.584988 0.219323,1.209787 0.112479,2.317726 0.112479,3.515584 0,0.175746 0.01411,0.366297 0.11247,0.516998 0.241821,0.370512 2.696991,-0.680594 2.811865,-0.723798 1.093932,-0.411406 1.488123,-0.731748 2.6994,-0.930595 1.66294,-0.272993 3.39183,-0.193683 5.06138,-0.103399 0.10444,0.0057 1.70174,-0.166469 1.79959,0.103399 0.27464,0.757455 -0.11248,2.014127 -0.11248,2.791787 0,0.417547 0.14419,3.459928 0,3.618983 -0.91268,1.006852 -3.43339,0.723796 -4.61147,0.723796 -1.9493,0 -3.900824,0.05073 -5.848688,0.1034 -1.102486,0.02981 -2.190957,0.05115 -3.261773,0.310198 -1.41793,0.343032 -1.923834,0.712983 -3.149293,-0.413598"
       id="path47" />
    <path
       style="fill:none;stroke:#000000;stroke-width:0.64004934;stroke-linecap:butt;stroke-linejoin:miter;stroke-opacity:1;stroke-dasharray:none"
       d="m 105.11012,27.014696 c -6.848153,5.301542 -7.049653,4.257534 -8.773043,16.440522 -0.46718,3.302626 -0.01,6.799487 1.23723,9.926353 1.59344,3.995121 7.279083,9.068778 9.785313,3.308783 1.21615,-2.795059 1.5736,-6.138637 1.7996,-9.099156 0.34623,-4.535705 0.53579,-8.99007 -0.67485,-13.441936 -0.28972,-1.065343 -1.79057,-6.649266 -3.37425,-7.134566 -0.41631,-0.127573 -0.82092,0.286025 -1.23722,0.413598 -0.56401,0.172832 -0.31911,-0.01685 -0.56237,0.206799"
       id="path48" />
    <path
       style="fill:none;stroke:#000000;stroke-width:0.64004934;stroke-linecap:butt;stroke-linejoin:miter;stroke-opacity:1;stroke-dasharray:none"
       d="m 101.84835,35.493456 c -2.335713,4.481221 -6.096863,8.054494 2.47445,11.994342 1.5429,0.709207 0.0437,-3.177055 -0.11248,-4.756377 -0.18388,-1.85951 -1.71375,-5.251566 -2.36197,-7.237965 z"
       id="path49" />
    <path
       style="fill:none;stroke:#000000;stroke-width:0.64004934;stroke-linecap:butt;stroke-linejoin:miter;stroke-opacity:1;stroke-dasharray:none"
       d="m 110.17149,26.911296 c -1.28811,9.473362 -1.38289,5.503334 -0.78732,11.890943"
       id="path50" />
    <path
       style="fill:none;stroke:#000000;stroke-width:0.64004934;stroke-linecap:butt;stroke-linejoin:miter;stroke-opacity:1;stroke-dasharray:none"
       d="m 108.48437,52.864574 c 1.05282,6.775137 0.38541,3.898865 1.68712,8.685558"
       id="path51" />
    <path
       style="fill:none;stroke:#000000;stroke-width:0.64004934;stroke-linecap:butt;stroke-linejoin:miter;stroke-opacity:1;stroke-dasharray:none"
       d="m 109.72159,26.807897 c 6.57981,-0.403261 5.09104,-0.352033 15.40905,-0.516998 0.30223,-0.0048 0.59903,0.07575 0.8998,0.1034 0.11192,0.01029 0.25789,-0.07312 0.33742,0 0.1541,0.141666 0.48912,2.063905 0.56238,2.378189 0.0635,0.272482 0.42053,2.56259 0.33743,2.791786 -0.16774,0.462592 -1.06531,0.02905 -1.34971,0 -0.44715,-0.04567 -0.90057,-0.02429 -1.3497,0 -1.35991,0.07354 -2.824,0.183043 -4.16157,0.413598 -0.30386,0.05238 -0.59252,0.175413 -0.89979,0.206799 -1.39659,0.142655 -4.97076,-0.496901 -5.96116,0.413598 -0.12362,0.113641 0.10921,0.900631 0.11247,0.930596 0.14369,1.321049 0.33743,2.706614 0.33743,4.032581 0,0.114401 0.007,0.880503 0.22495,0.930595 0.85282,0.196004 3.21886,-0.626344 4.04909,-0.827195 0.34935,-0.08452 3.18804,-0.757687 3.48672,-0.620398 0.0609,0.02801 0.62065,2.265732 0.67484,2.481588 0.0652,0.259901 0.39273,2.12055 0.22495,2.274789 -0.13928,0.128043 -1.03312,0.01705 -1.23722,0 -0.90336,-0.0755 -1.78447,-0.259368 -2.69939,-0.206799 -0.68281,0.03923 -4.17741,0.889815 -4.83642,1.344194 -0.20406,0.140693 -0.33742,0.721236 -0.33742,0.930596 0,1.088848 0.57058,1.866191 0.89979,2.895187 0.19506,0.609705 0.31433,1.238002 0.4499,1.861191 0.30546,1.404052 0.39205,2.835473 0.67485,4.23938 0.25153,1.248699 0.74512,2.500901 1.12475,3.722381 0.25099,0.807604 0.56085,1.599191 0.8998,2.378189 0.11226,0.258003 0.4499,0.445919 0.4499,0.723797 0,0.141019 -1.61745,0.182877 -1.7996,0.206799 -1.98733,0.260996 -4.33995,0.26738 -5.84869,1.654392"
       id="path52" />
    <path
       style="fill:none;stroke:#000000;stroke-width:0.81220642;stroke-linecap:butt;stroke-linejoin:miter;stroke-opacity:1;stroke-dasharray:none"
       d="m 154.02762,32.514579 c -0.62229,-4.772762 -5.32897,-10.334698 -10.58294,-7.845973 -2.95733,1.40084 -5.66436,5.586648 -7.11611,8.393366 -4.9259,9.523394 -4.66074,19.979232 4.56161,26.639813 1.58422,1.144161 4.5686,1.487212 6.38625,0.729858 3.7953,-1.581372 6.72385,-5.465045 7.29858,-9.488154 0.0255,-0.178392 0.19458,-2.183516 -0.18246,-2.372037 -0.5975,-0.298746 -6.20162,-0.373647 -6.38626,0.364929 -0.52915,2.11659 -1.2208,3.528523 -3.64929,4.014219 -1.65547,0.331094 -3.09946,-1.252654 -3.83175,-2.554502 -2.53778,-4.511603 -2.86695,-10.867324 0,-15.327017 1.55502,-2.418924 3.95238,-2.726427 5.6564,0 0.47098,0.753567 0.64415,1.866127 0.54739,2.736967 -0.0409,0.3677 -0.017,0.763883 -0.18246,1.094787 -0.0385,0.07693 -0.18247,0.268479 -0.18247,0.182465 0,-0.304752 0.65146,-0.820854 0.72986,-0.912323 1.50215,-1.752506 3.50112,-2.683086 5.6564,-3.466825 0.58849,-0.213998 1.71985,-0.290962 1.64218,-0.912322 -0.0549,-0.439368 -0.24329,-0.851501 -0.36493,-1.277251 z"
       id="path53" />
    <path
       style="fill:none;stroke:#000000;stroke-width:0.81220642;stroke-linecap:butt;stroke-linejoin:miter;stroke-opacity:1;stroke-dasharray:none"
       d="m 151.10819,35.251546 c -0.97884,6.851882 -0.65028,2.545644 0.18246,12.954977"
       id="path54" />
    <path
       style="fill:none;stroke:#000000;stroke-width:0.81220642;stroke-linecap:butt;stroke-linejoin:miter;stroke-opacity:1;stroke-dasharray:none"
       d="m 153.1153,28.317896 c 0.72985,-1.338073 0.74361,-3.53223 2.18957,-4.014219 2.77202,-0.924006 6.15264,-0.957346 8.75829,0.364929 2.01849,1.024304 2.7427,3.694313 3.46683,5.838863 1.92336,5.696089 1.53865,11.820612 0.18246,17.516589 -0.52921,2.222701 -1.04728,4.696577 -2.73696,6.386259 -0.75831,0.758311 -2.54242,1.824643 -3.64929,1.824643 -2.21055,0 -6.52961,-2.468446 -7.48105,-4.561612 -0.20134,-0.442958 0,-0.973143 0,-1.459714"
       id="path55" />
    <path
       style="fill:none;stroke:#000000;stroke-width:0.81220642;stroke-linecap:butt;stroke-linejoin:miter;stroke-opacity:1;stroke-dasharray:none"
       d="m 159.31909,34.704152 c -4.36979,1.269166 -3.80872,13.764549 1.09479,11.312798 1.19433,-0.597167 1.44753,-2.254422 2.00711,-3.466825 1.2497,-2.707701 -1.70434,-5.889385 -3.1019,-7.845973 z"
       id="path56" />
    <path
       style="fill:none;stroke:#000000;stroke-width:0.81220642;stroke-linecap:butt;stroke-linejoin:miter;stroke-opacity:1;stroke-dasharray:none"
       d="m 168.62478,40.907944 c 0.97314,-4.561611 1.69632,-9.1838 2.91943,-13.684835 0.30679,-1.128984 0.89321,-2.203135 1.64218,-3.101896 0.12653,-0.151839 3.55942,-0.819728 4.01422,-0.364929 0.34498,0.344982 0.69573,4.015576 0.72986,4.561612 0.11046,1.767466 0.26676,3.524551 0.36493,5.291469 0.14483,2.607001 -0.15333,5.239522 0,7.845973 0.0193,0.327787 0.29604,3.831754 0.72985,3.831754 0.82954,0 1.5968,-5.393195 1.64218,-5.656399 0.65838,-3.818567 1.57112,-7.62093 2.73697,-11.312797 0.19122,-0.60552 0.39338,-1.208609 0.54739,-1.824645 0.11893,-0.475718 -0.16427,-1.11298 0.18247,-1.459716 0.0161,-0.01605 2.02659,0.733754 2.91943,0.912322 1.8023,0.360461 0.85221,1.212861 0.54739,2.736968 -0.59972,2.99863 -1.36757,5.956255 -2.00711,8.940759 -0.68874,3.214132 -0.77664,6.599157 -1.27725,9.853081 -0.17508,1.138023 -1.0019,8.300481 -1.82464,9.123224 -0.12829,0.128286 -1.21392,-0.702714 -1.27725,-0.729858 -0.79657,-0.341384 -1.90362,-0.502581 -2.73697,-0.729858 -0.69872,-0.190559 -1.64376,-0.303843 -2.37204,-0.182465 -0.18972,0.03162 -0.46138,0.354494 -0.54739,0.182465 -0.57725,-1.154486 -0.29297,-2.973361 -0.36493,-4.196684 -0.10492,-1.783627 -0.26928,-3.712535 -0.5474,-5.473932 -1.27013,-5.080546 0.0455,0.683704 -0.36492,-2.189574 -0.0355,-0.248253 -0.0703,-0.954157 -0.18247,-0.729858 -1.35725,2.714496 -2.86129,10.006476 -5.109,11.130333 -0.97356,0.486781 -2.49425,-0.517265 -3.28436,-0.912323"
       id="path57" />
    <path
       style="fill:none;stroke:#000000;stroke-width:0.81220642;stroke-linecap:butt;stroke-linejoin:miter;stroke-opacity:1;stroke-dasharray:none"
       d="m 187.05369,31.419792 c 3.99855,-0.17385 4.46183,-1.585166 4.56161,2.007109 0.0406,1.460419 -0.14074,2.918761 -0.18246,4.379147 -0.15444,5.405413 -0.009,10.852772 -0.5474,16.23934 -0.0734,0.733813 -0.71536,3.471653 -0.18246,3.649289 0.51004,0.170013 1.33203,-0.266406 1.82464,-0.364929 0.13338,-0.02668 2.73188,-0.354743 2.73697,-0.364929 0.41436,-0.828723 -0.32478,-8.159533 -0.36493,-9.123225 -0.1529,-3.66963 -0.0464,-7.468042 0.18247,-11.130333 0.0364,-0.582989 -0.0236,-2.713405 0.18246,-2.919431 0.2616,-0.261603 0.72709,0.141609 1.09479,0.182464 1.44964,0.161072 2.94631,-0.03918 4.37915,-0.182464 0.006,-6.35e-4 1.42784,0.06374 1.45971,0 0.26639,-0.532786 0,-3.569541 0,-4.196683 0,-0.515618 -0.14896,-1.776194 0,-2.372038 0.0495,-0.197819 0.30693,-0.116004 0.18246,-0.364929 -0.1979,-0.395805 -1.12335,-0.182465 -1.45971,-0.182465 -2.80862,0 -5.7813,0.621007 -8.57583,0 -0.43797,-0.09733 -2.05863,-1.094787 -2.5545,-1.094787"
       id="path58" />
    <path
       style="fill:none;stroke:#000000;stroke-width:0.81220642;stroke-linecap:butt;stroke-linejoin:miter;stroke-opacity:1;stroke-dasharray:none"
       d="m 198.53218,34.229554 c 0.74984,6.161772 -0.14764,12.531563 0.73324,18.697715 0.0892,0.62425 0.54046,3.979907 1.09987,4.399462 1.47248,1.104361 6.19291,-0.399317 7.69906,-0.549933 0.79052,-0.07905 2.84756,0.08541 3.2996,-0.36662 0.17282,-0.172829 0.0346,-0.491286 0,-0.733245 -0.23196,-1.623685 -0.43847,-3.094088 -0.54994,-4.766085 -0.009,-0.137901 -0.0943,-1.436804 -0.18331,-1.466485 -0.42182,-0.14061 -1.78848,0.945647 -2.19973,1.099865 -0.69626,0.261096 -1.54704,0.176966 -2.19973,0.549931 -0.088,0.05028 -1.11632,1.15039 -1.28318,0.733245 -0.52429,-1.310738 -0.82319,-2.832785 -1.09986,-4.216151 -0.0689,-0.344395 -0.57427,-3.660135 -0.54994,-3.66622 1.63711,-0.409277 3.60693,-0.183311 5.31602,-0.183311 0.12221,0 0.31197,0.109306 0.36662,0 0.39481,-0.789608 0.36662,-2.243869 0.36662,-3.116285 0,-0.402176 0.20519,-1.606053 0,-2.016421 -0.45404,-0.908098 -5.69911,0.133872 -5.86595,-0.366621 -0.11593,-0.347808 -0.0455,-0.736075 0,-1.099866 0.0686,-0.549044 -0.0641,-1.154896 0.18332,-1.649798 0.27213,-0.544264 2.06306,-0.831228 2.38304,-0.916555 1.88074,-0.501531 3.79585,-0.647014 5.68264,-0.916555 0.18857,-0.02694 2.67937,-0.113022 2.74966,-0.18331 0.54443,-0.544424 0.11524,-2.501665 0,-3.116287 -0.12258,-0.653771 -0.24187,-2.683478 -0.54993,-3.299596 -0.78154,-1.563077 -10.08678,0.733243 -11.91521,0.733243"
       id="path59" />
    <path
       style="fill:none;stroke:#000000;stroke-width:0.81220642;stroke-linecap:butt;stroke-linejoin:miter;stroke-opacity:1;stroke-dasharray:none"
       d="m 212.2805,34.046243 c -0.5086,13.73229 0.43926,-8.366106 -1.6498,17.59785 -0.0932,1.15883 0.18331,2.320332 0.18331,3.482909"
       id="path60" />
    <path
       style="fill:none;stroke:#000000;stroke-width:0.81220642;stroke-linecap:butt;stroke-linejoin:miter;stroke-opacity:1;stroke-dasharray:none"
       d="m 215.39679,27.263739 c 1.46648,0.611036 3.36555,0.626882 4.39946,1.833109 0.84456,0.985321 1.89701,10.066947 2.19973,11.7319 0.0588,0.323601 -0.0644,1.250993 0.36662,1.466487 0.98445,0.492224 1.09961,-1.135806 1.28318,-1.649798 0.78889,-2.208908 1.5512,-3.723174 2.01642,-6.049261 0.0872,-0.436203 0.33493,-0.839466 0.36662,-1.283177 0.0595,-0.832722 -0.28053,-1.72475 0,-2.566352 0.14504,-0.435105 2.13782,-2.811571 2.38304,-2.566353 1.30652,1.306516 0.85002,4.085675 0.91656,5.682638 0.21307,5.11381 -0.0832,10.113995 -0.36663,15.214808 -0.0304,0.546931 -0.0113,5.014257 -0.36662,5.132705 -2.20247,0.734158 -4.3836,0.720241 -6.41588,-0.549931 -0.41775,-0.261096 -0.93483,-0.3849 -1.28318,-0.733245 -0.88887,-0.888876 -0.83786,-6.389351 -1.46648,-8.065681 -0.12371,-0.329876 -0.75783,-1.938928 -1.46649,-1.466487 -1.83188,1.221249 1.3126,9.013505 -2.38304,11.365278 -1.10935,0.705945 -2.30534,0.772094 -3.48291,0.183311"
       id="path61" />
    <path
       style="fill:none;stroke:#000000;stroke-width:0.81220642;stroke-linecap:butt;stroke-linejoin:miter;stroke-opacity:1;stroke-dasharray:none"
       d="m 229.87835,29.830092 c 2.37769,-2.24435 5.24165,-4.058981 8.4323,-4.949396 2.96036,-0.826145 6.13626,-0.85042 9.16555,-1.283176 0.36794,-0.05256 0.83705,-0.446127 1.09986,-0.183311 0.24934,0.249339 0.12644,3.366116 0.18332,3.84953 0.007,0.06018 0.34301,4.239757 0.1833,4.399462 -0.16639,0.166392 -1.41732,-0.354332 -1.46648,-0.366622 -1.64852,-0.41213 -7.45533,-0.488489 -8.79893,0.183311 -0.37054,0.185274 -0.46033,0.558176 -0.54993,0.916555 -0.55706,2.228251 0.61583,5.107107 0.91655,7.332437 0.45326,3.354066 1.09987,7.233327 1.09987,10.632035 0,0.571163 -1.69816,0.422626 -2.01642,0.549931 -0.23066,0.09226 -2.199,1.83384 -2.19973,1.83311 -0.43207,-0.432068 0.0321,-1.222918 0,-1.83311 -0.0323,-0.613233 -0.12509,-1.221791 -0.18331,-1.833108 -0.33802,-3.54916 -0.63905,-7.099133 -1.09987,-10.632035 -0.11974,-0.918016 -0.26896,-1.990782 -0.18331,-2.932974 0.0509,-0.559458 0.36802,-1.099402 0.36662,-1.099866 -1.60922,-0.536409 -3.70535,0.720198 -5.86595,0"
       id="path62" />
    <path
       style="fill:none;stroke:#000000;stroke-width:0.81220642;stroke-linecap:butt;stroke-linejoin:miter;stroke-opacity:1;stroke-dasharray:none"
       d="m 260.30796,26.347184 c -4.88388,-2.765003 -5.76818,-3.278448 -10.81534,-0.366622 -0.70381,0.406042 -0.94521,1.495141 -1.46649,2.016421"
       id="path63" />
    <path
       style="fill:none;stroke:#000000;stroke-width:0.81220642;stroke-linecap:butt;stroke-linejoin:miter;stroke-opacity:1;stroke-dasharray:none"
       d="m 260.67458,28.180294 c -3.10533,3.952237 -1.41294,1.661149 -4.94939,6.965815 -2.80658,-1.617284 -6.02987,-1.846036 -8.79892,0 -0.90015,0.600101 -2.18103,1.432807 -2.01642,2.749664 0.0733,0.58655 1.13829,1.017816 1.46649,1.099865 1.13252,0.283132 2.3314,0.174705 3.4829,0.366622 2.80409,0.467347 5.66757,1.261404 7.33244,3.666219 1.01423,1.464997 1.51208,3.052641 0.73324,4.766084 -0.7797,1.715361 -2.66651,1.629012 -4.21615,2.01642 -4.03208,1.008021 -8.3323,1.04989 -11.36527,-2.199731 -1.1651,-1.248312 -0.94248,-0.811017 -1.28318,-1.833109"
       id="path64" />
    <path
       style="fill:none;stroke:#000000;stroke-width:0.81220642;stroke-linecap:butt;stroke-linejoin:miter;stroke-opacity:1;stroke-dasharray:none"
       d="m 243.99329,30.929957 c -3.6581,0.106686 -6.88798,4.188514 -5.13271,7.699059"
       id="path65" />
    <path
       style="fill:none;stroke:#000000;stroke-width:0.81220642;stroke-linecap:butt;stroke-linejoin:miter;stroke-opacity:1;stroke-dasharray:none"
       d="m 239.22721,44.861588 c 2.94798,1.209361 0.40113,-3.225195 1.64979,-3.849529 0.15459,-0.07729 0.2205,0.274333 0.36663,0.366621 3.26085,2.059487 4.61452,3.441644 8.4323,3.66622 0.61466,0.03616 1.33293,-0.0995 1.6498,-0.733244 0.2907,-0.581405 -0.63065,-1.965122 -1.09987,-2.199732 -0.81247,-0.406236 -1.74444,-0.529773 -2.56635,-0.916555 -2.39262,-1.125937 -5.31288,-3.666218 -8.06568,-3.666218"
       id="path66" />
  </g>
</svg>
